<svg width="32" height="32" viewBox="0 0 32 32" fill="none" xmlns="http://www.w3.org/2000/svg">
<mask id="path-1-inside-1_27_56" fill="white">
<path d="M32 0.0128928V21.2667C32 27.1909 27.2263 31.987 21.344 31.987C21.2927 31.987 21.235 31.987 21.1838 31.987C21.1325 31.987 21.0749 31.987 21.0236 31.9806C20.9723 31.9806 20.9275 31.9806 20.8826 31.9741C20.8442 31.9741 20.8122 31.9677 20.7737 31.9677C20.7417 31.9677 20.7032 31.9612 20.6712 31.9612C20.511 31.9547 20.3572 31.9354 20.2034 31.9225C20.1586 31.9161 20.1137 31.9161 20.0625 31.9096C20.0048 31.9032 19.9471 31.8967 19.8958 31.8903C19.851 31.8838 19.8062 31.8774 19.7613 31.871C19.7036 31.8645 19.6524 31.8516 19.5947 31.8452C19.5499 31.8387 19.505 31.8323 19.4537 31.8194C19.3896 31.8065 19.3256 31.7936 19.2615 31.7807C19.2167 31.7743 19.1718 31.7614 19.1269 31.7549C19.0756 31.742 19.0244 31.7356 18.9731 31.7227C18.9347 31.7162 18.8962 31.7033 18.8578 31.6969C18.7937 31.684 18.7361 31.6647 18.672 31.6518C18.6207 31.6389 18.5695 31.626 18.5246 31.6131C18.4669 31.5938 18.4092 31.5809 18.3452 31.5615C18.3067 31.5486 18.2683 31.5422 18.2298 31.5293C18.0825 31.4842 17.9351 31.4326 17.7877 31.381C17.7365 31.3617 17.6916 31.3488 17.6403 31.3294C17.5891 31.3101 17.5378 31.2908 17.4802 31.2714C17.3905 31.2392 17.3071 31.2006 17.2175 31.1683C17.0701 31.1038 16.9227 31.0394 16.7753 30.9685C16.7368 30.9491 16.6984 30.9298 16.6664 30.9169C16.4678 30.8202 16.2755 30.717 16.0833 30.6075C16.0512 30.5881 16.0192 30.5688 15.9872 30.5494C15.9423 30.5236 15.8975 30.4979 15.859 30.4721C15.8141 30.4463 15.7693 30.4205 15.7309 30.3948C15.686 30.369 15.6476 30.3431 15.6027 30.3109C15.5258 30.2658 15.4553 30.2143 15.3784 30.1627C15.3464 30.1433 15.3144 30.1175 15.2823 30.0982C15.2759 30.0917 15.2695 30.0853 15.2631 30.0853C15.2311 30.066 15.2054 30.0402 15.1734 30.0209C15.1477 30.0015 15.1221 29.9886 15.1029 29.9693C15.0773 29.9499 15.0452 29.9241 15.0196 29.9048C14.9235 29.8339 14.8338 29.763 14.7441 29.6921C14.6672 29.6276 14.5839 29.5631 14.507 29.4987C14.4686 29.4664 14.4301 29.4342 14.3917 29.402C14.3532 29.3698 14.3148 29.3375 14.2763 29.3053C14.2379 29.2731 14.2058 29.2408 14.1674 29.2086C14.052 29.1054 13.9431 28.9959 13.8342 28.8927C13.7957 28.8605 13.7637 28.8218 13.7253 28.7831C13.6868 28.7444 13.6548 28.7058 13.6163 28.6671C13.5522 28.5962 13.4817 28.5252 13.4177 28.4479C13.3857 28.4093 13.3472 28.3706 13.3152 28.3319C13.2127 28.2159 13.1101 28.0934 13.014 27.9709C12.9563 27.8935 12.8922 27.8226 12.8346 27.7452C12.7513 27.6357 12.668 27.5196 12.5911 27.4101C12.5463 27.3456 12.5014 27.2811 12.463 27.2231C12.3861 27.1135 12.3156 26.9975 12.245 26.8879C12.2387 26.8814 12.2387 26.875 12.2323 26.8686C12.2002 26.817 12.1746 26.7719 12.1425 26.7203C12.0977 26.6429 12.0529 26.572 12.0144 26.4947C11.9824 26.4367 11.9503 26.3786 11.9183 26.3206C11.8926 26.2755 11.867 26.2239 11.8414 26.1723C11.835 26.1659 11.835 26.153 11.8286 26.1465C11.8158 26.1208 11.8029 26.1014 11.7966 26.0756C11.7709 26.0305 11.7517 25.979 11.7261 25.9338C11.694 25.8758 11.6684 25.8114 11.6428 25.7533C11.6428 25.7469 11.6363 25.7404 11.6363 25.734C11.6107 25.676 11.5851 25.618 11.5594 25.5599C11.5594 25.5535 11.553 25.5535 11.553 25.547C11.5274 25.4826 11.4954 25.4181 11.4697 25.3472C11.4505 25.2956 11.4313 25.2441 11.4057 25.199C11.3992 25.1796 11.3928 25.1602 11.3865 25.1409C11.3608 25.0765 11.3352 25.0185 11.316 24.954C11.2903 24.8831 11.2647 24.8057 11.2391 24.7348C11.2198 24.6832 11.2071 24.6317 11.1878 24.5801C11.1622 24.4963 11.1365 24.4125 11.1109 24.3287C11.0917 24.2642 11.0725 24.1998 11.0533 24.1288C11.0533 24.1224 11.0533 24.1224 11.0468 24.1159C11.034 24.0644 11.0212 24.0193 11.0084 23.9677C11.0084 23.9612 11.002 23.9548 11.002 23.9419C10.9891 23.8968 10.9828 23.8581 10.9699 23.813C10.9251 23.6196 10.8802 23.4198 10.8418 23.2199C10.829 23.1619 10.8226 23.1039 10.8097 23.0459C10.797 22.9749 10.7841 22.8976 10.7777 22.8267C10.7713 22.7686 10.7585 22.7042 10.7521 22.6462C10.7521 22.6397 10.7521 22.6333 10.7521 22.6204C10.7521 22.6011 10.7457 22.5882 10.7457 22.5688C10.7393 22.5043 10.7328 22.4464 10.7264 22.3819C10.7201 22.3238 10.7136 22.2594 10.7072 22.1949C10.7072 22.1627 10.7008 22.124 10.7008 22.0918C10.6944 22.0273 10.6944 21.9693 10.688 21.9048C10.6816 21.8404 10.6816 21.7759 10.6752 21.705C10.6752 21.6277 10.6688 21.5567 10.6688 21.4794C10.6688 21.402 10.6688 21.3246 10.6688 21.2538V15.987H21.3248V10.7203C21.3248 7.18773 23.0228 4.05478 25.6436 2.10152C27.3929 0.792908 29.5587 0.0193391 31.9039 0C31.9423 0.0128928 31.9744 0.0128928 32 0.0128928Z"/>
<path d="M21.3376 10.7334V16.0001H10.6816V21.2668C10.6816 21.3248 10.6816 21.3764 10.6816 21.4344C10.6816 21.4924 10.6816 21.544 10.6752 21.602C10.6752 21.6471 10.6752 21.6922 10.6688 21.7309C10.6624 21.8985 10.6496 22.0597 10.6368 22.2273C10.6368 22.2595 10.6304 22.2982 10.6239 22.3304C10.6239 22.3627 10.6176 22.3949 10.6112 22.4271C10.6047 22.4722 10.5983 22.5173 10.5983 22.5625C10.5791 22.6914 10.5663 22.8268 10.5407 22.9557C10.5343 22.9944 10.5278 23.0395 10.5214 23.0782C10.515 23.1104 10.5086 23.1491 10.5022 23.1878C10.4958 23.2265 10.4894 23.2587 10.483 23.2974C10.4061 23.6906 10.31 24.0774 10.1946 24.4577C10.1818 24.5028 10.169 24.5415 10.1562 24.5867C10.1434 24.6254 10.1306 24.664 10.1177 24.7027C10.1177 24.7091 10.1113 24.722 10.1113 24.7285C10.0985 24.7672 10.0857 24.7994 10.0729 24.8381C10.0473 24.9219 10.0152 24.9993 9.98321 25.083C9.97037 25.1217 9.95115 25.1669 9.93831 25.2055C9.92554 25.2378 9.9127 25.27 9.89986 25.3022C9.61156 26.0178 9.2463 26.7011 8.81697 27.3328C8.79136 27.3715 8.76575 27.4038 8.74008 27.4424C8.67601 27.5327 8.61195 27.6229 8.54144 27.7131C8.50944 27.7519 8.48377 27.7905 8.45177 27.8292C8.38765 27.913 8.32359 27.9968 8.25308 28.0806C8.22108 28.1193 8.18902 28.158 8.15702 28.1967L8.15057 28.2031C8.11857 28.2418 8.08651 28.2804 8.04806 28.3191C8.016 28.3578 7.97755 28.3965 7.94555 28.4352C7.84304 28.5512 7.73408 28.6672 7.62513 28.7769C7.58674 28.8155 7.55468 28.8542 7.51623 28.8864C7.44572 28.9573 7.36882 29.0347 7.29198 29.1056C7.25354 29.1378 7.21509 29.1765 7.17664 29.2152C7.13819 29.2474 7.09974 29.2861 7.06129 29.3183C7.02284 29.3506 6.9844 29.3893 6.94595 29.4215C6.9075 29.4537 6.86905 29.4923 6.8306 29.5246C6.74732 29.5891 6.67042 29.6535 6.58713 29.718C6.54868 29.7502 6.50379 29.7825 6.46534 29.8147C6.42689 29.8469 6.38205 29.8791 6.33722 29.9114C6.29877 29.9436 6.25393 29.9759 6.20903 30.0017C6.15781 30.0403 6.10652 30.0725 6.04886 30.1112C5.9976 30.1499 5.93993 30.1822 5.88867 30.2208C5.83741 30.253 5.77974 30.2917 5.72848 30.3239C5.61955 30.3949 5.51062 30.4593 5.40169 30.5238C5.29916 30.5818 5.19664 30.6463 5.08771 30.7043C5.0813 30.7107 5.06848 30.7107 5.06208 30.7172C5.00441 30.7494 4.94674 30.7817 4.88907 30.8074C4.80577 30.8526 4.72888 30.8912 4.64558 30.9299C4.63917 30.9299 4.63276 30.9364 4.62635 30.9364C4.5815 30.9557 4.53664 30.9751 4.4982 31.0008C4.45335 31.0202 4.40849 31.0395 4.36364 31.0653C4.31878 31.0846 4.28034 31.1039 4.23549 31.1233C4.21626 31.1298 4.19704 31.1427 4.17782 31.1491C4.15219 31.162 4.12015 31.1749 4.09452 31.1814C4.04966 31.2007 4.00481 31.22 3.95996 31.2393C3.9151 31.2587 3.87025 31.278 3.82539 31.2909C3.70365 31.336 3.5819 31.3812 3.45375 31.4263C3.40249 31.4456 3.35122 31.4585 3.29996 31.4778C3.28074 31.4843 3.25511 31.4907 3.22948 31.4972C3.17821 31.5165 3.12695 31.5294 3.07569 31.5423C3.01161 31.5617 2.94754 31.581 2.88346 31.6004C2.8322 31.6132 2.77453 31.6326 2.72327 31.6455C2.65919 31.6648 2.60152 31.6777 2.53745 31.6906C2.50541 31.697 2.47977 31.7035 2.44774 31.7099C2.42211 31.7164 2.39007 31.7228 2.36444 31.7293C2.33881 31.7357 2.30677 31.7422 2.28114 31.7486C2.21065 31.7615 2.14017 31.7809 2.06969 31.7938C2.01842 31.8066 1.96716 31.8131 1.9159 31.826C1.85182 31.8389 1.78775 31.8517 1.71726 31.8582C1.5827 31.884 1.44173 31.9033 1.30717 31.9162C1.2495 31.9227 1.19183 31.9291 1.13416 31.9356C1.07008 31.942 1.01242 31.9485 0.948338 31.9549C0.903483 31.9614 0.86504 31.9614 0.820186 31.9678C0.775331 31.9743 0.730476 31.9743 0.685621 31.9807C0.640767 31.9807 0.595915 31.9871 0.551062 31.9871C0.519023 31.9871 0.486985 31.9871 0.448538 31.9936C0.410092 31.9936 0.371646 32 0.339608 32C0.326792 32 0.313977 32 0.301161 32C0.294754 32 0.281938 32 0.275531 32C0.185823 32 0.0961156 32 0 32V10.7334C0.0256308 4.81558 4.79936 0.0130261 10.6816 0.0130261C10.7329 0.0130261 10.7906 0.0130261 10.8418 0.0130261C10.8931 0.0130261 10.9508 0.0130261 11.002 0.0194724C11.0469 0.0194724 11.0917 0.0194724 11.1365 0.0259188C11.1686 0.0259188 11.1942 0.0259188 11.2263 0.0323652C11.2711 0.0323652 11.316 0.0388116 11.3609 0.0388116C11.4057 0.0388116 11.4505 0.045258 11.4954 0.0517043C11.5979 0.0581506 11.7068 0.0710438 11.8094 0.0774901C11.8606 0.0839364 11.9119 0.0903827 11.9567 0.0968289C12.0144 0.103275 12.0721 0.109722 12.1362 0.116168C12.1618 0.122615 12.1938 0.122615 12.2195 0.129061C12.2451 0.135507 12.2707 0.135507 12.2963 0.141954C12.3092 0.141954 12.322 0.141954 12.3284 0.148401C12.4053 0.161293 12.4822 0.174186 12.5591 0.187079C12.6039 0.193525 12.6488 0.206418 12.6872 0.212864C12.7193 0.21931 12.7577 0.225757 12.7898 0.232204C12.9948 0.270882 13.1934 0.322453 13.3921 0.374024C13.4241 0.38047 13.4626 0.393363 13.4946 0.39981C13.5459 0.412702 13.5971 0.425595 13.642 0.444934C13.6868 0.457827 13.7317 0.47072 13.7765 0.483613C13.9239 0.528737 14.0649 0.573862 14.2059 0.625432C14.2251 0.631882 14.2507 0.638327 14.2699 0.651216C14.302 0.664111 14.3404 0.677006 14.3724 0.689895C14.5198 0.741469 14.6672 0.805932 14.8082 0.86395C14.853 0.88329 14.8979 0.902629 14.9427 0.921969C15.0196 0.954197 15.0901 0.986432 15.167 1.02511C15.1926 1.038 15.2183 1.04445 15.2375 1.05734C15.2759 1.07668 15.3208 1.09602 15.3593 1.11536C15.4105 1.14115 15.4618 1.16693 15.513 1.19272C15.5899 1.23139 15.6668 1.27007 15.7437 1.3152C16.0641 1.48925 16.378 1.68264 16.6792 1.88892C16.7177 1.91471 16.7561 1.94694 16.801 1.97273C16.8971 2.03719 16.9868 2.1081 17.0765 2.17257C17.1086 2.19191 17.1342 2.21769 17.1662 2.24347C17.2047 2.27571 17.2495 2.30794 17.288 2.34017C17.3264 2.37241 17.3649 2.40463 17.4033 2.43687C17.4418 2.4691 17.4802 2.50133 17.5187 2.53357C17.5571 2.5658 17.5955 2.59803 17.6339 2.63026C17.666 2.66249 17.6981 2.68828 17.7365 2.72051C17.7814 2.75919 17.8262 2.80431 17.871 2.84299C17.9031 2.87522 17.9351 2.90746 17.9736 2.93969C18.0505 3.0106 18.1209 3.08151 18.1915 3.15242C18.2235 3.18465 18.2555 3.21688 18.294 3.25556C18.3324 3.29424 18.3709 3.33292 18.4029 3.3716C18.4349 3.41028 18.4734 3.4425 18.5054 3.48118C18.5374 3.51986 18.5759 3.55854 18.6079 3.59722C18.64 3.6359 18.672 3.67458 18.7104 3.71326C18.813 3.82929 18.9091 3.95177 19.0052 4.07425C19.0309 4.10649 19.0565 4.14516 19.0885 4.17739C19.1205 4.22252 19.1526 4.2612 19.1846 4.30632C19.1911 4.31921 19.2038 4.32566 19.2103 4.33855C19.2423 4.38368 19.2743 4.42881 19.3128 4.47393C19.3512 4.5255 19.3897 4.57707 19.4217 4.62864C19.4281 4.63509 19.4345 4.64798 19.4409 4.65443C19.4794 4.71244 19.5178 4.76402 19.5499 4.82203C19.5819 4.8736 19.6139 4.92518 19.646 4.97674C19.7165 5.09278 19.787 5.20237 19.8575 5.31841C19.8767 5.34419 19.8895 5.37642 19.9087 5.40221C19.9151 5.4151 19.9215 5.42799 19.9279 5.44089C19.96 5.49246 19.9856 5.54403 20.0176 5.60205C20.0369 5.63428 20.0497 5.66007 20.0625 5.69229C20.0753 5.71808 20.0881 5.73742 20.1009 5.76321C20.1202 5.80189 20.1394 5.84057 20.1586 5.87924C20.1778 5.91792 20.197 5.9566 20.2163 5.98883C20.2547 6.06619 20.2932 6.15001 20.3316 6.22736C20.3508 6.266 20.3701 6.3047 20.3828 6.3434C20.4021 6.38205 20.4213 6.42075 20.4341 6.45939C20.447 6.49168 20.4597 6.5239 20.4726 6.54964C20.5431 6.71729 20.6135 6.89131 20.6776 7.06538C20.6904 7.10408 20.7033 7.14921 20.7225 7.18785C20.7609 7.29748 20.7994 7.40705 20.8314 7.5231C20.8506 7.58106 20.8698 7.64556 20.8891 7.70359C20.9083 7.77445 20.9275 7.84538 20.9467 7.90988C20.9596 7.96143 20.9724 8.01945 20.9916 8.071C20.9916 8.07748 20.998 8.0839 20.998 8.09038C21.0044 8.1226 21.0172 8.14834 21.0236 8.18063C21.0492 8.28377 21.0749 8.38686 21.0941 8.48359C21.1005 8.51581 21.1069 8.55451 21.1134 8.58674C21.1198 8.63186 21.1326 8.67698 21.139 8.72211C21.1454 8.76075 21.1518 8.79945 21.1582 8.83168C21.1774 8.9284 21.1903 9.02507 21.2095 9.1218C21.2159 9.15402 21.2159 9.18624 21.2223 9.21847C21.2287 9.27649 21.2351 9.32803 21.2415 9.37964C21.2415 9.38606 21.2415 9.39896 21.2415 9.40544C21.2543 9.47631 21.2607 9.55371 21.2672 9.62458C21.2736 9.6955 21.2799 9.76643 21.2864 9.84377C21.2928 9.9147 21.2992 9.98556 21.3056 10.0565C21.3056 10.1016 21.312 10.1403 21.312 10.1854C21.312 10.1919 21.312 10.1983 21.312 10.2048C21.312 10.2435 21.3184 10.2821 21.3184 10.3208C21.3184 10.3272 21.3184 10.3272 21.3184 10.3337C21.3184 10.3982 21.3248 10.4562 21.3248 10.5206C21.3376 10.5851 21.3376 10.6625 21.3376 10.7334Z"/>
</mask>
<path d="M32 0.0128928V21.2667C32 27.1909 27.2263 31.987 21.344 31.987C21.2927 31.987 21.235 31.987 21.1838 31.987C21.1325 31.987 21.0749 31.987 21.0236 31.9806C20.9723 31.9806 20.9275 31.9806 20.8826 31.9741C20.8442 31.9741 20.8122 31.9677 20.7737 31.9677C20.7417 31.9677 20.7032 31.9612 20.6712 31.9612C20.511 31.9547 20.3572 31.9354 20.2034 31.9225C20.1586 31.9161 20.1137 31.9161 20.0625 31.9096C20.0048 31.9032 19.9471 31.8967 19.8958 31.8903C19.851 31.8838 19.8062 31.8774 19.7613 31.871C19.7036 31.8645 19.6524 31.8516 19.5947 31.8452C19.5499 31.8387 19.505 31.8323 19.4537 31.8194C19.3896 31.8065 19.3256 31.7936 19.2615 31.7807C19.2167 31.7743 19.1718 31.7614 19.1269 31.7549C19.0756 31.742 19.0244 31.7356 18.9731 31.7227C18.9347 31.7162 18.8962 31.7033 18.8578 31.6969C18.7937 31.684 18.7361 31.6647 18.672 31.6518C18.6207 31.6389 18.5695 31.626 18.5246 31.6131C18.4669 31.5938 18.4092 31.5809 18.3452 31.5615C18.3067 31.5486 18.2683 31.5422 18.2298 31.5293C18.0825 31.4842 17.9351 31.4326 17.7877 31.381C17.7365 31.3617 17.6916 31.3488 17.6403 31.3294C17.5891 31.3101 17.5378 31.2908 17.4802 31.2714C17.3905 31.2392 17.3071 31.2006 17.2175 31.1683C17.0701 31.1038 16.9227 31.0394 16.7753 30.9685C16.7368 30.9491 16.6984 30.9298 16.6664 30.9169C16.4678 30.8202 16.2755 30.717 16.0833 30.6075C16.0512 30.5881 16.0192 30.5688 15.9872 30.5494C15.9423 30.5236 15.8975 30.4979 15.859 30.4721C15.8141 30.4463 15.7693 30.4205 15.7309 30.3948C15.686 30.369 15.6476 30.3431 15.6027 30.3109C15.5258 30.2658 15.4553 30.2143 15.3784 30.1627C15.3464 30.1433 15.3144 30.1175 15.2823 30.0982C15.2759 30.0917 15.2695 30.0853 15.2631 30.0853C15.2311 30.066 15.2054 30.0402 15.1734 30.0209C15.1477 30.0015 15.1221 29.9886 15.1029 29.9693C15.0773 29.9499 15.0452 29.9241 15.0196 29.9048C14.9235 29.8339 14.8338 29.763 14.7441 29.6921C14.6672 29.6276 14.5839 29.5631 14.507 29.4987C14.4686 29.4664 14.4301 29.4342 14.3917 29.402C14.3532 29.3698 14.3148 29.3375 14.2763 29.3053C14.2379 29.2731 14.2058 29.2408 14.1674 29.2086C14.052 29.1054 13.9431 28.9959 13.8342 28.8927C13.7957 28.8605 13.7637 28.8218 13.7253 28.7831C13.6868 28.7444 13.6548 28.7058 13.6163 28.6671C13.5522 28.5962 13.4817 28.5252 13.4177 28.4479C13.3857 28.4093 13.3472 28.3706 13.3152 28.3319C13.2127 28.2159 13.1101 28.0934 13.014 27.9709C12.9563 27.8935 12.8922 27.8226 12.8346 27.7452C12.7513 27.6357 12.668 27.5196 12.5911 27.4101C12.5463 27.3456 12.5014 27.2811 12.463 27.2231C12.3861 27.1135 12.3156 26.9975 12.245 26.8879C12.2387 26.8814 12.2387 26.875 12.2323 26.8686C12.2002 26.817 12.1746 26.7719 12.1425 26.7203C12.0977 26.6429 12.0529 26.572 12.0144 26.4947C11.9824 26.4367 11.9503 26.3786 11.9183 26.3206C11.8926 26.2755 11.867 26.2239 11.8414 26.1723C11.835 26.1659 11.835 26.153 11.8286 26.1465C11.8158 26.1208 11.8029 26.1014 11.7966 26.0756C11.7709 26.0305 11.7517 25.979 11.7261 25.9338C11.694 25.8758 11.6684 25.8114 11.6428 25.7533C11.6428 25.7469 11.6363 25.7404 11.6363 25.734C11.6107 25.676 11.5851 25.618 11.5594 25.5599C11.5594 25.5535 11.553 25.5535 11.553 25.547C11.5274 25.4826 11.4954 25.4181 11.4697 25.3472C11.4505 25.2956 11.4313 25.2441 11.4057 25.199C11.3992 25.1796 11.3928 25.1602 11.3865 25.1409C11.3608 25.0765 11.3352 25.0185 11.316 24.954C11.2903 24.8831 11.2647 24.8057 11.2391 24.7348C11.2198 24.6832 11.2071 24.6317 11.1878 24.5801C11.1622 24.4963 11.1365 24.4125 11.1109 24.3287C11.0917 24.2642 11.0725 24.1998 11.0533 24.1288C11.0533 24.1224 11.0533 24.1224 11.0468 24.1159C11.034 24.0644 11.0212 24.0193 11.0084 23.9677C11.0084 23.9612 11.002 23.9548 11.002 23.9419C10.9891 23.8968 10.9828 23.8581 10.9699 23.813C10.9251 23.6196 10.8802 23.4198 10.8418 23.2199C10.829 23.1619 10.8226 23.1039 10.8097 23.0459C10.797 22.9749 10.7841 22.8976 10.7777 22.8267C10.7713 22.7686 10.7585 22.7042 10.7521 22.6462C10.7521 22.6397 10.7521 22.6333 10.7521 22.6204C10.7521 22.6011 10.7457 22.5882 10.7457 22.5688C10.7393 22.5043 10.7328 22.4464 10.7264 22.3819C10.7201 22.3238 10.7136 22.2594 10.7072 22.1949C10.7072 22.1627 10.7008 22.124 10.7008 22.0918C10.6944 22.0273 10.6944 21.9693 10.688 21.9048C10.6816 21.8404 10.6816 21.7759 10.6752 21.705C10.6752 21.6277 10.6688 21.5567 10.6688 21.4794C10.6688 21.402 10.6688 21.3246 10.6688 21.2538V15.987H21.3248V10.7203C21.3248 7.18773 23.0228 4.05478 25.6436 2.10152C27.3929 0.792908 29.5587 0.0193391 31.9039 0C31.9423 0.0128928 31.9744 0.0128928 32 0.0128928Z" fill="#FF5900"/>
<path d="M32 0.0128928V21.2667C32 27.1909 27.2263 31.987 21.344 31.987C21.2927 31.987 21.235 31.987 21.1838 31.987C21.1325 31.987 21.0749 31.987 21.0236 31.9806C20.9723 31.9806 20.9275 31.9806 20.8826 31.9741C20.8442 31.9741 20.8122 31.9677 20.7737 31.9677C20.7417 31.9677 20.7032 31.9612 20.6712 31.9612C20.511 31.9547 20.3572 31.9354 20.2034 31.9225C20.1586 31.9161 20.1137 31.9161 20.0625 31.9096C20.0048 31.9032 19.9471 31.8967 19.8958 31.8903C19.851 31.8838 19.8062 31.8774 19.7613 31.871C19.7036 31.8645 19.6524 31.8516 19.5947 31.8452C19.5499 31.8387 19.505 31.8323 19.4537 31.8194C19.3896 31.8065 19.3256 31.7936 19.2615 31.7807C19.2167 31.7743 19.1718 31.7614 19.1269 31.7549C19.0756 31.742 19.0244 31.7356 18.9731 31.7227C18.9347 31.7162 18.8962 31.7033 18.8578 31.6969C18.7937 31.684 18.7361 31.6647 18.672 31.6518C18.6207 31.6389 18.5695 31.626 18.5246 31.6131C18.4669 31.5938 18.4092 31.5809 18.3452 31.5615C18.3067 31.5486 18.2683 31.5422 18.2298 31.5293C18.0825 31.4842 17.9351 31.4326 17.7877 31.381C17.7365 31.3617 17.6916 31.3488 17.6403 31.3294C17.5891 31.3101 17.5378 31.2908 17.4802 31.2714C17.3905 31.2392 17.3071 31.2006 17.2175 31.1683C17.0701 31.1038 16.9227 31.0394 16.7753 30.9685C16.7368 30.9491 16.6984 30.9298 16.6664 30.9169C16.4678 30.8202 16.2755 30.717 16.0833 30.6075C16.0512 30.5881 16.0192 30.5688 15.9872 30.5494C15.9423 30.5236 15.8975 30.4979 15.859 30.4721C15.8141 30.4463 15.7693 30.4205 15.7309 30.3948C15.686 30.369 15.6476 30.3431 15.6027 30.3109C15.5258 30.2658 15.4553 30.2143 15.3784 30.1627C15.3464 30.1433 15.3144 30.1175 15.2823 30.0982C15.2759 30.0917 15.2695 30.0853 15.2631 30.0853C15.2311 30.066 15.2054 30.0402 15.1734 30.0209C15.1477 30.0015 15.1221 29.9886 15.1029 29.9693C15.0773 29.9499 15.0452 29.9241 15.0196 29.9048C14.9235 29.8339 14.8338 29.763 14.7441 29.6921C14.6672 29.6276 14.5839 29.5631 14.507 29.4987C14.4686 29.4664 14.4301 29.4342 14.3917 29.402C14.3532 29.3698 14.3148 29.3375 14.2763 29.3053C14.2379 29.2731 14.2058 29.2408 14.1674 29.2086C14.052 29.1054 13.9431 28.9959 13.8342 28.8927C13.7957 28.8605 13.7637 28.8218 13.7253 28.7831C13.6868 28.7444 13.6548 28.7058 13.6163 28.6671C13.5522 28.5962 13.4817 28.5252 13.4177 28.4479C13.3857 28.4093 13.3472 28.3706 13.3152 28.3319C13.2127 28.2159 13.1101 28.0934 13.014 27.9709C12.9563 27.8935 12.8922 27.8226 12.8346 27.7452C12.7513 27.6357 12.668 27.5196 12.5911 27.4101C12.5463 27.3456 12.5014 27.2811 12.463 27.2231C12.3861 27.1135 12.3156 26.9975 12.245 26.8879C12.2387 26.8814 12.2387 26.875 12.2323 26.8686C12.2002 26.817 12.1746 26.7719 12.1425 26.7203C12.0977 26.6429 12.0529 26.572 12.0144 26.4947C11.9824 26.4367 11.9503 26.3786 11.9183 26.3206C11.8926 26.2755 11.867 26.2239 11.8414 26.1723C11.835 26.1659 11.835 26.153 11.8286 26.1465C11.8158 26.1208 11.8029 26.1014 11.7966 26.0756C11.7709 26.0305 11.7517 25.979 11.7261 25.9338C11.694 25.8758 11.6684 25.8114 11.6428 25.7533C11.6428 25.7469 11.6363 25.7404 11.6363 25.734C11.6107 25.676 11.5851 25.618 11.5594 25.5599C11.5594 25.5535 11.553 25.5535 11.553 25.547C11.5274 25.4826 11.4954 25.4181 11.4697 25.3472C11.4505 25.2956 11.4313 25.2441 11.4057 25.199C11.3992 25.1796 11.3928 25.1602 11.3865 25.1409C11.3608 25.0765 11.3352 25.0185 11.316 24.954C11.2903 24.8831 11.2647 24.8057 11.2391 24.7348C11.2198 24.6832 11.2071 24.6317 11.1878 24.5801C11.1622 24.4963 11.1365 24.4125 11.1109 24.3287C11.0917 24.2642 11.0725 24.1998 11.0533 24.1288C11.0533 24.1224 11.0533 24.1224 11.0468 24.1159C11.034 24.0644 11.0212 24.0193 11.0084 23.9677C11.0084 23.9612 11.002 23.9548 11.002 23.9419C10.9891 23.8968 10.9828 23.8581 10.9699 23.813C10.9251 23.6196 10.8802 23.4198 10.8418 23.2199C10.829 23.1619 10.8226 23.1039 10.8097 23.0459C10.797 22.9749 10.7841 22.8976 10.7777 22.8267C10.7713 22.7686 10.7585 22.7042 10.7521 22.6462C10.7521 22.6397 10.7521 22.6333 10.7521 22.6204C10.7521 22.6011 10.7457 22.5882 10.7457 22.5688C10.7393 22.5043 10.7328 22.4464 10.7264 22.3819C10.7201 22.3238 10.7136 22.2594 10.7072 22.1949C10.7072 22.1627 10.7008 22.124 10.7008 22.0918C10.6944 22.0273 10.6944 21.9693 10.688 21.9048C10.6816 21.8404 10.6816 21.7759 10.6752 21.705C10.6752 21.6277 10.6688 21.5567 10.6688 21.4794C10.6688 21.402 10.6688 21.3246 10.6688 21.2538V15.987H21.3248V10.7203C21.3248 7.18773 23.0228 4.05478 25.6436 2.10152C27.3929 0.792908 29.5587 0.0193391 31.9039 0C31.9423 0.0128928 31.9744 0.0128928 32 0.0128928Z" stroke="#FF5900" stroke-width="4" stroke-miterlimit="10" mask="url(#path-1-inside-1_27_56)"/>
<path d="M21.3376 10.7334V16.0001H10.6816V21.2668C10.6816 21.3248 10.6816 21.3764 10.6816 21.4344C10.6816 21.4924 10.6816 21.544 10.6752 21.602C10.6752 21.6471 10.6752 21.6922 10.6688 21.7309C10.6624 21.8985 10.6496 22.0597 10.6368 22.2273C10.6368 22.2595 10.6304 22.2982 10.6239 22.3304C10.6239 22.3627 10.6176 22.3949 10.6112 22.4271C10.6047 22.4722 10.5983 22.5173 10.5983 22.5625C10.5791 22.6914 10.5663 22.8268 10.5407 22.9557C10.5343 22.9944 10.5278 23.0395 10.5214 23.0782C10.515 23.1104 10.5086 23.1491 10.5022 23.1878C10.4958 23.2265 10.4894 23.2587 10.483 23.2974C10.4061 23.6906 10.31 24.0774 10.1946 24.4577C10.1818 24.5028 10.169 24.5415 10.1562 24.5867C10.1434 24.6254 10.1306 24.664 10.1177 24.7027C10.1177 24.7091 10.1113 24.722 10.1113 24.7285C10.0985 24.7672 10.0857 24.7994 10.0729 24.8381C10.0473 24.9219 10.0152 24.9993 9.98321 25.083C9.97037 25.1217 9.95115 25.1669 9.93831 25.2055C9.92554 25.2378 9.9127 25.27 9.89986 25.3022C9.61156 26.0178 9.2463 26.7011 8.81697 27.3328C8.79136 27.3715 8.76575 27.4038 8.74008 27.4424C8.67601 27.5327 8.61195 27.6229 8.54144 27.7131C8.50944 27.7519 8.48377 27.7905 8.45177 27.8292C8.38765 27.913 8.32359 27.9968 8.25308 28.0806C8.22108 28.1193 8.18902 28.158 8.15702 28.1967L8.15057 28.2031C8.11857 28.2418 8.08651 28.2804 8.04806 28.3191C8.016 28.3578 7.97755 28.3965 7.94555 28.4352C7.84304 28.5512 7.73408 28.6672 7.62513 28.7769C7.58674 28.8155 7.55468 28.8542 7.51623 28.8864C7.44572 28.9573 7.36882 29.0347 7.29198 29.1056C7.25354 29.1378 7.21509 29.1765 7.17664 29.2152C7.13819 29.2474 7.09974 29.2861 7.06129 29.3183C7.02284 29.3506 6.9844 29.3893 6.94595 29.4215C6.9075 29.4537 6.86905 29.4923 6.8306 29.5246C6.74732 29.5891 6.67042 29.6535 6.58713 29.718C6.54868 29.7502 6.50379 29.7825 6.46534 29.8147C6.42689 29.8469 6.38205 29.8791 6.33722 29.9114C6.29877 29.9436 6.25393 29.9759 6.20903 30.0017C6.15781 30.0403 6.10652 30.0725 6.04886 30.1112C5.9976 30.1499 5.93993 30.1822 5.88867 30.2208C5.83741 30.253 5.77974 30.2917 5.72848 30.3239C5.61955 30.3949 5.51062 30.4593 5.40169 30.5238C5.29916 30.5818 5.19664 30.6463 5.08771 30.7043C5.0813 30.7107 5.06848 30.7107 5.06208 30.7172C5.00441 30.7494 4.94674 30.7817 4.88907 30.8074C4.80577 30.8526 4.72888 30.8912 4.64558 30.9299C4.63917 30.9299 4.63276 30.9364 4.62635 30.9364C4.5815 30.9557 4.53664 30.9751 4.4982 31.0008C4.45335 31.0202 4.40849 31.0395 4.36364 31.0653C4.31878 31.0846 4.28034 31.1039 4.23549 31.1233C4.21626 31.1298 4.19704 31.1427 4.17782 31.1491C4.15219 31.162 4.12015 31.1749 4.09452 31.1814C4.04966 31.2007 4.00481 31.22 3.95996 31.2393C3.9151 31.2587 3.87025 31.278 3.82539 31.2909C3.70365 31.336 3.5819 31.3812 3.45375 31.4263C3.40249 31.4456 3.35122 31.4585 3.29996 31.4778C3.28074 31.4843 3.25511 31.4907 3.22948 31.4972C3.17821 31.5165 3.12695 31.5294 3.07569 31.5423C3.01161 31.5617 2.94754 31.581 2.88346 31.6004C2.8322 31.6132 2.77453 31.6326 2.72327 31.6455C2.65919 31.6648 2.60152 31.6777 2.53745 31.6906C2.50541 31.697 2.47977 31.7035 2.44774 31.7099C2.42211 31.7164 2.39007 31.7228 2.36444 31.7293C2.33881 31.7357 2.30677 31.7422 2.28114 31.7486C2.21065 31.7615 2.14017 31.7809 2.06969 31.7938C2.01842 31.8066 1.96716 31.8131 1.9159 31.826C1.85182 31.8389 1.78775 31.8517 1.71726 31.8582C1.5827 31.884 1.44173 31.9033 1.30717 31.9162C1.2495 31.9227 1.19183 31.9291 1.13416 31.9356C1.07008 31.942 1.01242 31.9485 0.948338 31.9549C0.903483 31.9614 0.86504 31.9614 0.820186 31.9678C0.775331 31.9743 0.730476 31.9743 0.685621 31.9807C0.640767 31.9807 0.595915 31.9871 0.551062 31.9871C0.519023 31.9871 0.486985 31.9871 0.448538 31.9936C0.410092 31.9936 0.371646 32 0.339608 32C0.326792 32 0.313977 32 0.301161 32C0.294754 32 0.281938 32 0.275531 32C0.185823 32 0.0961156 32 0 32V10.7334C0.0256308 4.81558 4.79936 0.0130261 10.6816 0.0130261C10.7329 0.0130261 10.7906 0.0130261 10.8418 0.0130261C10.8931 0.0130261 10.9508 0.0130261 11.002 0.0194724C11.0469 0.0194724 11.0917 0.0194724 11.1365 0.0259188C11.1686 0.0259188 11.1942 0.0259188 11.2263 0.0323652C11.2711 0.0323652 11.316 0.0388116 11.3609 0.0388116C11.4057 0.0388116 11.4505 0.045258 11.4954 0.0517043C11.5979 0.0581506 11.7068 0.0710438 11.8094 0.0774901C11.8606 0.0839364 11.9119 0.0903827 11.9567 0.0968289C12.0144 0.103275 12.0721 0.109722 12.1362 0.116168C12.1618 0.122615 12.1938 0.122615 12.2195 0.129061C12.2451 0.135507 12.2707 0.135507 12.2963 0.141954C12.3092 0.141954 12.322 0.141954 12.3284 0.148401C12.4053 0.161293 12.4822 0.174186 12.5591 0.187079C12.6039 0.193525 12.6488 0.206418 12.6872 0.212864C12.7193 0.21931 12.7577 0.225757 12.7898 0.232204C12.9948 0.270882 13.1934 0.322453 13.3921 0.374024C13.4241 0.38047 13.4626 0.393363 13.4946 0.39981C13.5459 0.412702 13.5971 0.425595 13.642 0.444934C13.6868 0.457827 13.7317 0.47072 13.7765 0.483613C13.9239 0.528737 14.0649 0.573862 14.2059 0.625432C14.2251 0.631882 14.2507 0.638327 14.2699 0.651216C14.302 0.664111 14.3404 0.677006 14.3724 0.689895C14.5198 0.741469 14.6672 0.805932 14.8082 0.86395C14.853 0.88329 14.8979 0.902629 14.9427 0.921969C15.0196 0.954197 15.0901 0.986432 15.167 1.02511C15.1926 1.038 15.2183 1.04445 15.2375 1.05734C15.2759 1.07668 15.3208 1.09602 15.3593 1.11536C15.4105 1.14115 15.4618 1.16693 15.513 1.19272C15.5899 1.23139 15.6668 1.27007 15.7437 1.3152C16.0641 1.48925 16.378 1.68264 16.6792 1.88892C16.7177 1.91471 16.7561 1.94694 16.801 1.97273C16.8971 2.03719 16.9868 2.1081 17.0765 2.17257C17.1086 2.19191 17.1342 2.21769 17.1662 2.24347C17.2047 2.27571 17.2495 2.30794 17.288 2.34017C17.3264 2.37241 17.3649 2.40463 17.4033 2.43687C17.4418 2.4691 17.4802 2.50133 17.5187 2.53357C17.5571 2.5658 17.5955 2.59803 17.6339 2.63026C17.666 2.66249 17.6981 2.68828 17.7365 2.72051C17.7814 2.75919 17.8262 2.80431 17.871 2.84299C17.9031 2.87522 17.9351 2.90746 17.9736 2.93969C18.0505 3.0106 18.1209 3.08151 18.1915 3.15242C18.2235 3.18465 18.2555 3.21688 18.294 3.25556C18.3324 3.29424 18.3709 3.33292 18.4029 3.3716C18.4349 3.41028 18.4734 3.4425 18.5054 3.48118C18.5374 3.51986 18.5759 3.55854 18.6079 3.59722C18.64 3.6359 18.672 3.67458 18.7104 3.71326C18.813 3.82929 18.9091 3.95177 19.0052 4.07425C19.0309 4.10649 19.0565 4.14516 19.0885 4.17739C19.1205 4.22252 19.1526 4.2612 19.1846 4.30632C19.1911 4.31921 19.2038 4.32566 19.2103 4.33855C19.2423 4.38368 19.2743 4.42881 19.3128 4.47393C19.3512 4.5255 19.3897 4.57707 19.4217 4.62864C19.4281 4.63509 19.4345 4.64798 19.4409 4.65443C19.4794 4.71244 19.5178 4.76402 19.5499 4.82203C19.5819 4.8736 19.6139 4.92518 19.646 4.97674C19.7165 5.09278 19.787 5.20237 19.8575 5.31841C19.8767 5.34419 19.8895 5.37642 19.9087 5.40221C19.9151 5.4151 19.9215 5.42799 19.9279 5.44089C19.96 5.49246 19.9856 5.54403 20.0176 5.60205C20.0369 5.63428 20.0497 5.66007 20.0625 5.69229C20.0753 5.71808 20.0881 5.73742 20.1009 5.76321C20.1202 5.80189 20.1394 5.84057 20.1586 5.87924C20.1778 5.91792 20.197 5.9566 20.2163 5.98883C20.2547 6.06619 20.2932 6.15001 20.3316 6.22736C20.3508 6.266 20.3701 6.3047 20.3828 6.3434C20.4021 6.38205 20.4213 6.42075 20.4341 6.45939C20.447 6.49168 20.4597 6.5239 20.4726 6.54964C20.5431 6.71729 20.6135 6.89131 20.6776 7.06538C20.6904 7.10408 20.7033 7.14921 20.7225 7.18785C20.7609 7.29748 20.7994 7.40705 20.8314 7.5231C20.8506 7.58106 20.8698 7.64556 20.8891 7.70359C20.9083 7.77445 20.9275 7.84538 20.9467 7.90988C20.9596 7.96143 20.9724 8.01945 20.9916 8.071C20.9916 8.07748 20.998 8.0839 20.998 8.09038C21.0044 8.1226 21.0172 8.14834 21.0236 8.18063C21.0492 8.28377 21.0749 8.38686 21.0941 8.48359C21.1005 8.51581 21.1069 8.55451 21.1134 8.58674C21.1198 8.63186 21.1326 8.67698 21.139 8.72211C21.1454 8.76075 21.1518 8.79945 21.1582 8.83168C21.1774 8.9284 21.1903 9.02507 21.2095 9.1218C21.2159 9.15402 21.2159 9.18624 21.2223 9.21847C21.2287 9.27649 21.2351 9.32803 21.2415 9.37964C21.2415 9.38606 21.2415 9.39896 21.2415 9.40544C21.2543 9.47631 21.2607 9.55371 21.2672 9.62458C21.2736 9.6955 21.2799 9.76643 21.2864 9.84377C21.2928 9.9147 21.2992 9.98556 21.3056 10.0565C21.3056 10.1016 21.312 10.1403 21.312 10.1854C21.312 10.1919 21.312 10.1983 21.312 10.2048C21.312 10.2435 21.3184 10.2821 21.3184 10.3208C21.3184 10.3272 21.3184 10.3272 21.3184 10.3337C21.3184 10.3982 21.3248 10.4562 21.3248 10.5206C21.3376 10.5851 21.3376 10.6625 21.3376 10.7334Z" stroke="#FF5900" stroke-width="4" stroke-miterlimit="10" mask="url(#path-1-inside-1_27_56)"/>
</svg>
